<svg version="1.2" xmlns="http://www.w3.org/2000/svg" viewBox="0 0 1545 1543" width="1545" height="1543"><style>.a{fill:#2c2e35}.b{fill:#ffd036}</style><path class="a" d="m772.5 1543c-427.1 0-772.3-344.7-772.3-771 0-426.4 345.2-771.1 772.3-771.1 427.2 0 772.4 344.7 772.4 771.1 0 426.3-345.2 771-772.4 771z"/><path class="b" d="m639.8 352h264v105.1h404v235.8h-404v196.6h1.5c0 37.7 31.2 68.1 68.9 68.1 37.7 0 68.9-30.4 69.6-68.1v-98h264v216.9c0 100.8-63.8 163.2-161.8 182.1h-0.7-741.2-0.7-0.7-1.5-0.7-1.4-0.8c-92.8-9.5-161-87.1-161.7-179.9v-2.2-212.5-337.3h264.7v430.9c0 37.7 31.2 68.1 68.9 68.1 37.7 0 68.9-30.4 69.6-68.1h-0.7l0.7-196.6h-89.2v-235.8h89.2z"/></svg>